<svg width="500" height="500" viewBox="0 0 500 500" fill="none" xmlns="http://www.w3.org/2000/svg">
<rect width="500" height="500" fill="black"/>
<rect x="18" y="34" width="47" height="85" fill="white"/>
<rect x="18" y="380" width="47" height="85" fill="white"/>
<rect x="434" y="380" width="47" height="85" fill="white"/>
<rect x="331" y="380" width="46" height="85" fill="white"/>
<rect x="227" y="380" width="45" height="85" fill="white"/>
<rect x="122" y="380" width="46" height="85" fill="white"/>
<rect x="434" y="34" width="47" height="85" fill="white"/>
<rect x="331" y="34" width="46" height="85" fill="white"/>
<rect x="227" y="34" width="45" height="85" fill="white"/>
<path d="M204.221 289.35C205.588 299.213 208.273 306.586 212.277 311.469C219.602 320.355 232.15 324.799 249.924 324.799C260.568 324.799 269.211 323.627 275.852 321.283C288.449 316.791 294.748 308.441 294.748 296.234C294.748 289.105 291.623 283.588 285.373 279.682C279.123 275.873 269.309 272.504 255.93 269.574L233.078 264.447C210.617 259.369 195.09 253.852 186.496 247.895C171.945 237.934 164.67 222.357 164.67 201.166C164.67 181.83 171.701 165.766 185.764 152.973C199.826 140.18 220.48 133.783 247.727 133.783C270.48 133.783 289.865 139.838 305.881 151.947C321.994 163.959 330.441 181.439 331.223 204.389H287.863C287.082 191.4 281.418 182.172 270.871 176.703C263.84 173.09 255.1 171.283 244.65 171.283C233.029 171.283 223.752 173.627 216.818 178.314C209.885 183.002 206.418 189.545 206.418 197.943C206.418 205.658 209.836 211.42 216.672 215.229C221.066 217.768 230.441 220.746 244.797 224.164L282.004 233.1C298.312 237.006 310.617 242.23 318.918 248.773C331.809 258.93 338.254 273.627 338.254 292.865C338.254 312.592 330.686 328.998 315.549 342.084C300.51 355.072 279.221 361.566 251.682 361.566C223.557 361.566 201.438 355.17 185.324 342.377C169.211 329.486 161.154 311.811 161.154 289.35H204.221Z" fill="#F8F7F7"/>
<path d="M367.551 312.348H411.936V356H367.551V312.348Z" fill="#FF0000"/>
<rect x="122" y="34" width="47" height="85" fill="white"/>
</svg>
